<svg xmlns="http://www.w3.org/2000/svg" viewBox="0 0 64 64" role="img" aria-label="KiT">
  <title>KiT</title>
  <defs>
    <radialGradient id="kit-vortex" gradientUnits="userSpaceOnUse"
        cx="32.0" cy="32.0" r="24.96">
      <stop offset="0.00" stop-color="#fff0c4"/>
      <stop offset="0.18" stop-color="#ffe296"/>
      <stop offset="0.34" stop-color="#f0c660"/>
      <stop offset="0.52" stop-color="#96b8ff"/>
      <stop offset="0.72" stop-color="#3a74f0"/>
      <stop offset="1.00" stop-color="#1034a6"/>
    </radialGradient>
    <radialGradient id="kit-disc" gradientUnits="userSpaceOnUse"
        cx="32.0" cy="32.0" r="19.84">
      <stop offset="0" stop-color="#3b362a"/>
      <stop offset="1" stop-color="#000000"/>
    </radialGradient>
  </defs>
  <circle cx="32.0" cy="32.0" r="32.0" fill="#000000"/>
  <circle cx="32.0" cy="32.0" r="19.84" fill="url(#kit-disc)"/>
  <polygon id="kit-loop" points="28.99,55.49 28.55,55.42 28.17,55.33 27.85,55.24 27.58,55.13 27.38,55.03 27.23,54.95 27.14,54.88 27.07,54.83 27.02,54.80 26.98,54.76 26.95,54.70 26.93,54.61 26.93,54.47 26.97,54.30 27.04,54.10 27.14,53.86 27.28,53.61 27.45,53.33 27.65,53.04 27.88,52.73 28.13,52.41 28.39,52.08 28.67,51.73 28.97,51.38 29.27,51.01 29.58,50.64 29.90,50.26 30.22,49.86 30.54,49.46 30.85,49.05 31.17,48.63 31.48,48.20 31.78,47.77 32.07,47.33 32.36,46.88 32.63,46.43 32.89,45.97 33.14,45.51 33.38,45.04 33.60,44.57 33.81,44.09 34.00,43.62 34.17,43.14 34.33,42.66 34.47,42.18 34.60,41.69 34.71,41.21 34.80,40.73 34.87,40.26 34.92,39.78 34.96,39.31 34.97,38.84 34.97,38.37 34.95,37.91 34.92,37.46 34.86,37.01 34.78,36.57 34.69,36.14 34.58,35.71 34.45,35.29 34.30,34.89 34.14,34.49 33.96,34.10 33.76,33.73 33.54,33.37 33.31,33.02 33.06,32.68 32.80,32.36 32.52,32.06 32.23,31.78 31.98,31.50 31.75,31.20 31.53,30.89 31.33,30.57 31.14,30.24 30.97,29.89 30.82,29.54 30.68,29.18 30.56,28.82 30.46,28.44 30.37,28.06 30.30,27.67 30.24,27.27 30.20,26.87 30.18,26.47 30.18,26.06 30.19,25.64 30.22,25.22 30.26,24.80 30.33,24.38 30.40,23.96 30.50,23.53 30.61,23.10 30.74,22.68 30.88,22.25 31.04,21.82 31.21,21.40 31.40,20.97 31.60,20.55 31.82,20.13 32.05,19.72 32.30,19.30 32.55,18.89 32.82,18.49 33.10,18.09 33.39,17.69 33.69,17.30 34.00,16.91 34.31,16.53 34.63,16.16 34.96,15.79 35.29,15.42 35.62,15.07 35.95,14.71 36.28,14.36 36.61,14.02 36.93,13.68 37.25,13.34 37.55,13.01 37.85,12.67 38.13,12.33 38.40,11.99 38.66,11.65 38.89,11.29 39.09,10.91 39.27,10.52 39.40,10.10 39.48,9.65 39.49,9.19 39.42,8.72 39.27,8.26 39.04,7.84 38.74,7.46 38.39,7.13 37.99,6.84 37.55,6.59 37.06,6.38 36.53,6.21 35.96,6.07 35.34,5.97 34.68,5.91 33.98,5.89 33.24,5.92 32.47,5.99 31.67,6.11 30.84,6.28 30.00,6.50 29.13,6.77 28.26,7.10 27.39,7.49 26.52,7.93 25.66,8.43 24.82,8.98 24.00,9.58 23.20,10.23 22.45,10.93 21.73,11.67 21.05,12.44 20.42,13.25 19.84,14.09 19.31,14.96 18.84,15.84 18.42,16.74 18.06,17.65 17.76,18.57 17.52,19.49 17.33,20.40 17.20,21.30 17.13,22.19 17.10,23.07 17.13,23.93 17.21,24.76 17.33,25.57 17.50,26.35 17.71,27.11 17.96,27.83 18.24,28.51 18.55,29.16 18.90,29.78 19.27,30.36 19.66,30.90 20.08,31.40 20.51,31.87 20.96,32.29 21.43,32.68 21.90,33.03 22.39,33.35 22.88,33.63 23.37,33.87 23.87,34.07 24.37,34.24 24.86,34.38 25.36,34.48 25.85,34.55 26.33,34.60 26.81,34.61 27.28,34.59 27.74,34.54 28.19,34.47 28.63,34.37 29.05,34.25 29.47,34.10 29.87,33.94 30.25,33.75 30.62,33.54 30.98,33.31 31.31,33.06 31.64,32.80 31.94,32.52 32.22,32.23 32.50,31.98 32.80,31.75 33.11,31.53 33.43,31.34 33.76,31.16 34.11,31.00 34.46,30.85 34.82,30.73 35.19,30.63 35.57,30.55 35.96,30.49 36.35,30.46 36.75,30.45 37.16,30.46 37.57,30.50 37.98,30.56 38.40,30.66 38.82,30.77 39.23,30.92 39.65,31.09 40.06,31.29 40.47,31.53 40.88,31.79 41.27,32.08 41.66,32.41 42.04,32.76 42.40,33.15 42.75,33.57 43.09,34.02 43.40,34.50 43.70,35.02 43.97,35.56 44.21,36.14 44.42,36.74 44.61,37.37 44.76,38.03 44.87,38.71 44.95,39.42 44.99,40.15 44.98,40.90 44.93,41.66 44.84,42.43 44.69,43.22 44.50,44.01 44.26,44.80 43.97,45.60 43.63,46.38 43.24,47.16 42.80,47.92 42.31,48.66 41.78,49.39 41.21,50.08 40.60,50.74 39.95,51.37 39.27,51.97 38.57,52.52 37.84,53.02 37.09,53.49 36.34,53.90 35.58,54.27 34.82,54.59 34.06,54.86 33.33,55.08 32.61,55.26 31.91,55.39 31.25,55.48 30.62,55.54 30.03,55.55 29.49,55.53 28.99,55.49 28.58,58.01 29.24,58.08 29.94,58.11 30.68,58.09 31.46,58.02 32.26,57.90 33.09,57.74 33.94,57.52 34.80,57.25 35.68,56.92 36.55,56.54 37.42,56.10 38.28,55.60 39.13,55.06 39.95,54.46 40.75,53.81 41.51,53.12 42.23,52.38 42.91,51.61 43.54,50.80 44.13,49.96 44.66,49.10 45.13,48.21 45.55,47.31 45.92,46.40 46.22,45.49 46.47,44.57 46.66,43.66 46.79,42.75 46.87,41.86 46.89,40.98 46.87,40.13 46.79,39.29 46.67,38.48 46.51,37.70 46.30,36.94 46.06,36.22 45.78,35.53 45.47,34.88 45.13,34.26 44.76,33.68 44.36,33.14 43.95,32.63 43.52,32.17 43.07,31.74 42.61,31.34 42.13,30.99 41.65,30.67 41.16,30.39 40.66,30.15 40.17,29.94 39.67,29.77 39.17,29.63 38.68,29.52 38.19,29.45 37.70,29.41 37.22,29.39 36.75,29.41 36.29,29.45 35.84,29.53 35.40,29.62 34.97,29.74 34.56,29.89 34.16,30.06 33.77,30.24 33.40,30.45 33.04,30.68 32.70,30.93 32.38,31.19 32.07,31.47 31.78,31.77 31.48,32.03 31.18,32.26 30.87,32.48 30.55,32.68 30.22,32.85 29.87,33.01 29.52,33.16 29.15,33.28 28.78,33.38 28.40,33.45 28.01,33.51 27.62,33.54 27.21,33.55 26.81,33.54 26.40,33.50 25.98,33.43 25.57,33.34 25.15,33.22 24.73,33.07 24.32,32.89 23.90,32.69 23.49,32.45 23.09,32.19 22.69,31.89 22.30,31.57 21.93,31.21 21.56,30.82 21.22,30.40 20.88,29.94 20.57,29.46 20.28,28.94 20.01,28.40 19.77,27.82 19.56,27.21 19.38,26.58 19.23,25.92 19.12,25.23 19.04,24.52 19.01,23.80 19.02,23.05 19.07,22.28 19.17,21.51 19.32,20.72 19.51,19.93 19.76,19.14 20.05,18.35 20.40,17.56 20.79,16.79 21.23,16.03 21.72,15.28 22.25,14.56 22.83,13.87 23.44,13.21 24.09,12.58 24.78,11.99 25.49,11.44 26.22,10.94 26.96,10.48 27.72,10.07 28.48,9.70 29.24,9.39 30.00,9.12 30.74,8.90 31.46,8.72 32.16,8.60 32.83,8.51 33.46,8.46 34.05,8.45 34.60,8.47 35.09,8.52 35.54,8.60 35.93,8.69 36.26,8.81 36.53,8.93 36.75,9.05 36.90,9.16 36.99,9.26 37.04,9.34 37.06,9.40 37.07,9.45 37.06,9.49 37.05,9.56 37.03,9.67 36.99,9.81 36.92,9.99 36.82,10.20 36.68,10.44 36.52,10.71 36.32,10.99 36.10,11.29 35.86,11.60 35.60,11.93 35.32,12.27 35.03,12.62 34.73,12.98 34.42,13.36 34.11,13.74 33.79,14.13 33.47,14.53 33.15,14.94 32.84,15.36 32.53,15.78 32.23,16.22 31.94,16.66 31.65,17.10 31.38,17.55 31.12,18.01 30.87,18.47 30.63,18.94 30.41,19.41 30.20,19.89 30.01,20.36 29.83,20.84 29.68,21.32 29.53,21.80 29.41,22.28 29.30,22.76 29.21,23.24 29.14,23.72 29.08,24.20 29.04,24.67 29.03,25.14 29.03,25.60 29.05,26.06 29.08,26.52 29.14,26.97 29.21,27.41 29.30,27.84 29.41,28.27 29.54,28.69 29.69,29.09 29.85,29.49 30.03,29.88 30.23,30.25 30.45,30.62 30.68,30.97 30.93,31.30 31.19,31.62 31.47,31.93 31.77,32.22 32.03,32.52 32.26,32.82 32.48,33.13 32.68,33.45 32.87,33.78 33.04,34.12 33.19,34.48 33.33,34.84 33.45,35.20 33.55,35.58 33.64,35.96 33.71,36.35 33.76,36.75 33.80,37.15 33.82,37.56 33.82,37.97 33.81,38.38 33.78,38.80 33.73,39.22 33.67,39.64 33.59,40.07 33.50,40.49 33.38,40.92 33.26,41.35 33.11,41.77 32.95,42.20 32.78,42.62 32.59,43.05 32.39,43.47 32.17,43.89 31.94,44.30 31.69,44.72 31.44,45.13 31.17,45.53 30.89,45.93 30.60,46.33 30.30,46.72 29.99,47.10 29.68,47.48 29.36,47.85 29.03,48.22 28.71,48.58 28.38,48.94 28.05,49.29 27.72,49.64 27.39,49.98 27.08,50.32 26.76,50.65 26.46,50.98 26.17,51.31 25.89,51.64 25.62,51.97 25.38,52.30 25.15,52.65 24.95,53.00 24.77,53.37 24.63,53.76 24.54,54.17 24.50,54.61 24.53,55.07 24.65,55.54 24.85,55.98 25.13,56.40 25.48,56.76 25.88,57.08 26.34,57.35 26.83,57.58 27.37,57.76 27.95,57.91 28.58,58.01" fill="url(#kit-vortex)"/>
  <use href="#kit-loop" transform="rotate(60.0000 32.0 32.0)"/>
  <use href="#kit-loop" transform="rotate(120.0000 32.0 32.0)"/>
  <circle cx="32.0" cy="32.0" r="1.60" fill="#fff0c4"/>
  <circle cx="32.0" cy="32.0" r="31.58" fill="none"
      stroke="#2554cb" stroke-width="0.83"/>
</svg>
